solid OpenSCAD_Model
  facet normal -1 0 0
    outer loop
      vertex 0 0 0
      vertex 0 0 2
      vertex 0 76 0
    endloop
  endfacet
  facet normal -1 0 0
    outer loop
      vertex 0 76 0
      vertex 0 0 2
      vertex 0 76 2
    endloop
  endfacet
  facet normal 0 -1 0
    outer loop
      vertex 0 0 2
      vertex 0 0 0
      vertex 71 0 0
    endloop
  endfacet
  facet normal 0 -1 0
    outer loop
      vertex 71 0 2
      vertex 0 0 2
      vertex 71 0 0
    endloop
  endfacet
  facet normal 0 0 -1
    outer loop
      vertex 53 20.5 0
      vertex 71 0 0
      vertex 18 20.5 0
    endloop
  endfacet
  facet normal 0 0 -1
    outer loop
      vertex 53 55.5 0
      vertex 0 76 0
      vertex 71 76 0
    endloop
  endfacet
  facet normal 0 0 -1
    outer loop
      vertex 0 0 0
      vertex 0 76 0
      vertex 18 55.5 0
    endloop
  endfacet
  facet normal 0 0 -1
    outer loop
      vertex 0 0 0
      vertex 18 55.5 0
      vertex 18 20.5 0
    endloop
  endfacet
  facet normal 0 0 -1
    outer loop
      vertex 0 0 0
      vertex 18 20.5 0
      vertex 71 0 0
    endloop
  endfacet
  facet normal 0 0 -1
    outer loop
      vertex 71 0 0
      vertex 53 20.5 0
      vertex 71 76 0
    endloop
  endfacet
  facet normal 0 0 -1
    outer loop
      vertex 53 20.5 0
      vertex 53 55.5 0
      vertex 71 76 0
    endloop
  endfacet
  facet normal 0 0 -1
    outer loop
      vertex 18 55.5 0
      vertex 0 76 0
      vertex 53 55.5 0
    endloop
  endfacet
  facet normal 0 1 0
    outer loop
      vertex 0 76 0
      vertex 0 76 2
      vertex 71 76 0
    endloop
  endfacet
  facet normal 0 1 0
    outer loop
      vertex 71 76 0
      vertex 0 76 2
      vertex 71 76 2
    endloop
  endfacet
  facet normal 0 0 1
    outer loop
      vertex 18 20.5 2
      vertex 0 0 2
      vertex 71 0 2
    endloop
  endfacet
  facet normal 0 0 1
    outer loop
      vertex 0 76 2
      vertex 0 0 2
      vertex 18 20.5 2
    endloop
  endfacet
  facet normal 0 0 1
    outer loop
      vertex 18 55.5 2
      vertex 53 55.5 2
      vertex 0 76 2
    endloop
  endfacet
  facet normal 0 0 1
    outer loop
      vertex 0 76 2
      vertex 18 20.5 2
      vertex 18 55.5 2
    endloop
  endfacet
  facet normal 0 0 1
    outer loop
      vertex 71 76 2
      vertex 53 55.5 2
      vertex 71 0 2
    endloop
  endfacet
  facet normal 0 0 1
    outer loop
      vertex 71 76 2
      vertex 0 76 2
      vertex 53 55.5 2
    endloop
  endfacet
  facet normal 0 0 1
    outer loop
      vertex 53 55.5 2
      vertex 53 20.5 2
      vertex 71 0 2
    endloop
  endfacet
  facet normal 0 0 1
    outer loop
      vertex 53 20.5 2
      vertex 18 20.5 2
      vertex 71 0 2
    endloop
  endfacet
  facet normal 1 0 0
    outer loop
      vertex 71 0 2
      vertex 71 0 0
      vertex 71 76 0
    endloop
  endfacet
  facet normal 1 0 0
    outer loop
      vertex 71 76 2
      vertex 71 0 2
      vertex 71 76 0
    endloop
  endfacet
  facet normal 1 0 0
    outer loop
      vertex 18 55.5 0
      vertex 18 55.5 2
      vertex 18 20.5 2
    endloop
  endfacet
  facet normal 1 0 0
    outer loop
      vertex 18 20.5 0
      vertex 18 55.5 0
      vertex 18 20.5 2
    endloop
  endfacet
  facet normal 0 -1 0
    outer loop
      vertex 53 55.5 0
      vertex 53 55.5 2
      vertex 18 55.5 2
    endloop
  endfacet
  facet normal 0 -1 0
    outer loop
      vertex 18 55.5 0
      vertex 53 55.5 0
      vertex 18 55.5 2
    endloop
  endfacet
  facet normal -1 0 0
    outer loop
      vertex 53 55.5 2
      vertex 53 55.5 0
      vertex 53 20.5 2
    endloop
  endfacet
  facet normal -1 0 0
    outer loop
      vertex 53 20.5 2
      vertex 53 55.5 0
      vertex 53 20.5 0
    endloop
  endfacet
  facet normal 0 1 0
    outer loop
      vertex 53 20.5 2
      vertex 53 20.5 0
      vertex 18 20.5 2
    endloop
  endfacet
  facet normal 0 1 0
    outer loop
      vertex 18 20.5 2
      vertex 53 20.5 0
      vertex 18 20.5 0
    endloop
  endfacet
endsolid OpenSCAD_Model
